<?xml version="1.0" encoding="utf-8"?>
<!-- Generator: Adobe Illustrator 28.1.0, SVG Export Plug-In . SVG Version: 6.00 Build 0)  -->
<svg version="1.1" xmlns="http://www.w3.org/2000/svg" xmlns:xlink="http://www.w3.org/1999/xlink" x="0px" y="0px"
	 viewBox="0 0 40 20" style="enable-background:new 0 0 40 20;" xml:space="preserve">
<style type="text/css">
	.st0{display:none;}
	.st1{display:inline;}
	.st2{fill:#FFFFFF;}
</style>
<g id="play" class="st0">
	<g class="st1">
		<path class="st2" d="M25.78,10.77l-10.68,6.17c-0.3,0.17-0.6,0.17-0.9,0c-0.3-0.17-0.45-0.43-0.45-0.77V3.83
			c0-0.35,0.15-0.6,0.45-0.77c0.3-0.17,0.6-0.17,0.9-0.01l10.68,6.18c0.3,0.17,0.46,0.43,0.46,0.77S26.09,10.6,25.78,10.77z"/>
	</g>
</g>
<g id="pause" class="st0">
	<g class="st1">
		<path class="st2" d="M15.27,3.27c0.19-0.2,0.43-0.3,0.71-0.3h2.01c0.28,0,0.52,0.1,0.71,0.3s0.29,0.44,0.29,0.72v12.03
			c0,0.28-0.1,0.52-0.29,0.72c-0.19,0.2-0.43,0.3-0.71,0.3h-2.01c-0.28,0-0.52-0.1-0.71-0.3c-0.19-0.2-0.29-0.44-0.29-0.72V3.98
			C14.98,3.71,15.08,3.47,15.27,3.27z M21.29,3.27c-0.2,0.2-0.3,0.44-0.3,0.72v12.03c0,0.28,0.1,0.52,0.3,0.72
			c0.2,0.2,0.43,0.3,0.7,0.3h2.02c0.27,0,0.5-0.1,0.7-0.3c0.2-0.2,0.3-0.44,0.3-0.72V3.98c0-0.28-0.1-0.52-0.3-0.72
			c-0.2-0.2-0.43-0.3-0.7-0.3H22C21.73,2.97,21.49,3.07,21.29,3.27z"/>
	</g>
</g>
<g id="prev">
	<g>
		<path class="st2" d="M20.95,3.93c0-0.28-0.09-0.51-0.28-0.69c-0.19-0.17-0.41-0.27-0.66-0.28c-0.25-0.01-0.48,0.08-0.68,0.27
			l-6.05,5.84V3.76c0-0.13-0.05-0.25-0.14-0.35s-0.21-0.15-0.34-0.15h-0.96c-0.13,0-0.25,0.05-0.34,0.15s-0.14,0.21-0.14,0.35v12.48
			c0,0.13,0.05,0.25,0.14,0.35s0.21,0.15,0.34,0.15h0.96c0.13,0,0.25-0.05,0.34-0.15s0.14-0.21,0.14-0.35v-5.32l6.05,5.84
			c0.2,0.2,0.43,0.29,0.68,0.27c0.25-0.01,0.48-0.11,0.66-0.28c0.19-0.17,0.28-0.4,0.28-0.69v-5.15l6.07,5.84
			c0.2,0.2,0.43,0.29,0.68,0.27c0.25-0.01,0.48-0.11,0.66-0.28c0.19-0.17,0.28-0.4,0.28-0.69V3.93c0-0.28-0.09-0.51-0.28-0.69
			s-0.41-0.27-0.66-0.28c-0.25-0.01-0.48,0.08-0.68,0.27l-6.07,5.84V3.93z"/>
	</g>
</g>
<g id="next" class="st0">
	<g class="st1">
		<path class="st2" d="M19.05,9.08l-6.07-5.84c-0.2-0.2-0.43-0.29-0.68-0.27c-0.25,0.01-0.48,0.11-0.66,0.28
			c-0.19,0.17-0.28,0.4-0.28,0.69v12.13c0,0.28,0.09,0.51,0.28,0.69c0.19,0.17,0.41,0.27,0.66,0.28c0.25,0.01,0.48-0.08,0.68-0.27
			l6.07-5.84v5.15c0,0.28,0.09,0.51,0.28,0.69c0.19,0.17,0.41,0.27,0.66,0.28c0.25,0.01,0.48-0.08,0.68-0.27l6.05-5.84v5.32
			c0,0.13,0.05,0.25,0.14,0.35c0.09,0.1,0.21,0.15,0.34,0.15h0.96c0.13,0,0.25-0.05,0.34-0.15s0.14-0.21,0.14-0.35V3.76
			c0-0.13-0.05-0.25-0.14-0.35s-0.21-0.15-0.34-0.15h-0.96c-0.13,0-0.25,0.05-0.34,0.15c-0.09,0.1-0.14,0.21-0.14,0.35v5.32
			l-6.05-5.84c-0.2-0.2-0.43-0.29-0.68-0.27c-0.25,0.01-0.48,0.11-0.66,0.28c-0.19,0.17-0.28,0.4-0.28,0.69V9.08z"/>
	</g>
</g>
<g id="Layer_5" class="st0">
	<g class="st1">
		<path class="st2" d="M38.38,0.75c0.41,0,0.75,0.34,0.75,0.75v16.87c0,0.41-0.34,0.75-0.75,0.75H1.5c-0.41,0-0.75-0.34-0.75-0.75
			V1.5c0-0.41,0.34-0.75,0.75-0.75H38.38 M38.38,0H1.5C0.67,0,0,0.67,0,1.5v16.87c0,0.83,0.67,1.5,1.5,1.5h36.88
			c0.83,0,1.5-0.67,1.5-1.5V1.5C39.88,0.67,39.21,0,38.38,0L38.38,0z"/>
	</g>
</g>
</svg>
