<?xml version="1.0" encoding="utf-8"?>
<!-- Generator: Adobe Illustrator 28.1.0, SVG Export Plug-In . SVG Version: 6.00 Build 0)  -->
<svg version="1.1" xmlns="http://www.w3.org/2000/svg" xmlns:xlink="http://www.w3.org/1999/xlink" x="0px" y="0px"
	 viewBox="0 0 40 20" style="enable-background:new 0 0 40 20;" xml:space="preserve">
<style type="text/css">
	.st0{display:none;}
	.st1{display:inline;}
	.st2{fill:#FFFFFF;}
</style>
<g id="play" class="st0">
	<g class="st1">
		<path class="st2" d="M28.18,11.1l-15.1,8.72c-0.42,0.24-0.84,0.24-1.27,0s-0.64-0.61-0.64-1.08V1.27c0-0.49,0.21-0.85,0.64-1.09
			s0.85-0.24,1.27-0.01l15.1,8.74c0.43,0.24,0.65,0.61,0.65,1.09C28.83,10.49,28.61,10.85,28.18,11.1z"/>
	</g>
</g>
<g id="pause" class="st0">
	<g class="st1">
		<path class="st2" d="M13.28,0.43C13.55,0.14,13.89,0,14.29,0h2.85c0.4,0,0.73,0.14,1.01,0.43s0.42,0.62,0.42,1.02v17.11
			c0,0.4-0.14,0.74-0.42,1.02C17.87,19.86,17.53,20,17.14,20h-2.85c-0.4,0-0.73-0.14-1.01-0.43c-0.28-0.28-0.42-0.62-0.42-1.02V1.45
			C12.86,1.05,13,0.71,13.28,0.43z M21.84,0.43c-0.28,0.28-0.43,0.62-0.43,1.02v17.11c0,0.4,0.14,0.74,0.43,1.02
			c0.28,0.28,0.62,0.43,1,0.43h2.87c0.38,0,0.72-0.14,1-0.43c0.28-0.28,0.43-0.62,0.43-1.02V1.45c0-0.4-0.14-0.74-0.43-1.02
			C26.43,0.14,26.1,0,25.71,0h-2.87C22.46,0,22.12,0.14,21.84,0.43z"/>
	</g>
</g>
<g id="prev">
	<g>
		<path class="st2" d="M21.36,1.38c0-0.4-0.13-0.73-0.4-0.98S20.38,0.02,20.02,0s-0.68,0.11-0.97,0.39l-8.61,8.3V1.13
			c0-0.19-0.07-0.35-0.2-0.49C10.1,0.5,9.94,0.43,9.75,0.43H8.39c-0.19,0-0.35,0.07-0.48,0.21s-0.2,0.3-0.2,0.49v17.74
			c0,0.19,0.07,0.35,0.2,0.49c0.13,0.14,0.29,0.21,0.48,0.21h1.36c0.19,0,0.35-0.07,0.48-0.21c0.13-0.14,0.2-0.3,0.2-0.49v-7.56
			l8.61,8.3c0.29,0.28,0.61,0.41,0.97,0.39c0.36-0.02,0.68-0.15,0.94-0.4s0.4-0.57,0.4-0.98v-7.32l8.62,8.3
			c0.29,0.28,0.61,0.41,0.97,0.39c0.36-0.02,0.68-0.15,0.94-0.4c0.27-0.25,0.4-0.57,0.4-0.98V1.38c0-0.4-0.13-0.73-0.4-0.98
			c-0.27-0.25-0.58-0.38-0.94-0.4c-0.36-0.02-0.68,0.11-0.97,0.39l-8.62,8.3V1.38z"/>
	</g>
</g>
<g id="next" class="st0">
	<g class="st1">
		<path class="st2" d="M18.64,8.69l-8.62-8.3C9.73,0.11,9.41-0.02,9.05,0C8.69,0.02,8.37,0.15,8.1,0.4c-0.27,0.25-0.4,0.57-0.4,0.98
			v17.25c0,0.4,0.13,0.73,0.4,0.98c0.27,0.25,0.58,0.38,0.94,0.4c0.36,0.02,0.68-0.11,0.97-0.39l8.62-8.3v7.32
			c0,0.4,0.13,0.73,0.4,0.98s0.58,0.38,0.94,0.4c0.36,0.02,0.68-0.11,0.97-0.39l8.61-8.3v7.56c0,0.19,0.07,0.35,0.2,0.49
			c0.13,0.14,0.29,0.21,0.48,0.21h1.36c0.19,0,0.35-0.07,0.48-0.21c0.13-0.14,0.2-0.3,0.2-0.49V1.13c0-0.19-0.07-0.35-0.2-0.49
			c-0.13-0.14-0.29-0.21-0.48-0.21h-1.36c-0.19,0-0.35,0.07-0.48,0.21s-0.2,0.3-0.2,0.49v7.56l-8.61-8.3
			C20.66,0.11,20.34-0.02,19.98,0s-0.68,0.15-0.94,0.4s-0.4,0.57-0.4,0.98V8.69z"/>
	</g>
</g>
</svg>
